<svg width="126mm" height="137.5mm" version="1.1" viewBox="0 0 126 137.5" xmlns="http://www.w3.org/2000/svg">
 <g transform="translate(-39.311 -81.063)">
  <path d="m84.434 82.188c-8.9279 0-16.228 7.3021-16.228 16.23-3e-6 2.8023.72027 5.444 1.9833 7.7504l-3.7848 3.7843c-2.2168-1.1408-4.7236-1.7901-7.3768-1.7901-8.9279 0-16.231 7.3026-16.231 16.231-1e-6 3.6983 1.2558 7.1151 3.3585 9.8516a3.9813 3.9813 0 00.67954.90795 3.9813 3.9813 0 00.37362.32918c2.9658 3.1574 7.1705 5.1397 11.819 5.1397 8.9279 0 16.228-7.3006 16.228-16.228 0-3.3968-1.0586-6.557-2.8598-9.1705l3.2086-3.2086c2.5456 1.6626 5.5788 2.6345 8.83 2.6345 3.1217 0 6.043-.89514 8.5245-2.4381l14.557 14.558c-1.4084 2.4016-2.2205 5.1904-2.2205 8.1618 0 3.0575.85709 5.9239 2.342 8.3721l-14.478 14.479c-2.5243-1.6212-5.5183-2.5673-8.725-2.5673-8.9279 0-16.228 7.3021-16.228 16.23 0 3.199.94128 6.1863 2.5549 8.7064l-6.8523 6.8523c-2.3227-1.287-4.9884-2.0226-7.8192-2.0226-8.9279 0-16.23 7.3-16.23 16.228 6e-6 8.9279 7.3021 16.231 16.23 16.231 8.9279 0 16.228-7.3026 16.228-16.231 3e-6-3.2228-.95534-6.2305-2.5911-8.7622l6.8301-6.8301c2.3364 1.3072 5.023 2.0567 7.8776 2.0567 2.7107 0 5.2694-.67623 7.5215-1.8635l7.3251 7.3251c-1.3767 2.3818-2.1699 5.1386-2.1699 8.0739 5e-6 8.9279 7.3 16.231 16.228 16.231 8.9279 0 16.231-7.3026 16.231-16.231s-7.3026-16.228-16.231-16.228c-3.1189 0-6.0375.8934-8.5173 2.4334l-6.9277-6.9278c1.7477-2.5878 2.7704-5.7009 2.7704-9.0418 0-2.8472-.74516-5.5276-2.0464-7.86l14.681-14.681c2.4163 1.4316 5.2287 2.2577 8.2264 2.2577 2.9659 0 5.7496-.80964 8.1483-2.2133l4.3661 4.3661c-1.1059 2.19-1.7337 4.6583-1.7337 7.2678 0 8.9279 7.3026 16.228 16.231 16.228s16.228-7.3006 16.228-16.228c0-8.9279-7.3-16.231-16.228-16.231-3.4395 0-6.6353 1.0876-9.2676 2.9306l-3.9031-3.9031c1.513-2.4647 2.388-5.3584 2.388-8.4475 0-8.9279-7.3006-16.228-16.228-16.228-3.0836 0-5.9728.87164-8.4346 2.3797l-14.594-14.594c1.3751-2.381 2.1673-5.1361 2.1673-8.0693 0-8.9279-7.3021-16.23-16.23-16.23zm37.091 39.499c7.3142 0 13.244 5.929 13.244 13.243s-5.9295 13.244-13.244 13.244c-7.3142 0-13.244-5.9295-13.244-13.244 0-7.3142 5.9295-13.243 13.244-13.243zm27.011 25.65c7.3142 0 13.244 5.929 13.244 13.243s-5.9295 13.244-13.244 13.244c-7.3142 0-13.243-5.9295-13.243-13.244s5.929-13.243 13.243-13.243zm-92.447 40.628c7.3142 0 13.243 5.9295 13.243 13.244-2e-6 7.3142-5.929 13.243-13.243 13.243-7.3142 0-13.244-5.929-13.244-13.243-1e-6-7.3142 5.9295-13.244 13.244-13.244z" color="#000000" color-rendering="auto" dominant-baseline="auto" image-rendering="auto" shape-rendering="auto" solid-color="#000000" stop-color="#000000" style="font-feature-settings:normal;font-variant-alternates:normal;font-variant-caps:normal;font-variant-east-asian:normal;font-variant-ligatures:normal;font-variant-numeric:normal;font-variant-position:normal;font-variation-settings:normal;inline-size:0;isolation:auto;mix-blend-mode:normal;shape-margin:0;shape-padding:0;text-decoration-color:#000000;text-decoration-line:none;text-decoration-style:solid;text-indent:0;text-orientation:mixed;text-transform:none;white-space:normal"/>
 </g>
</svg>
