<svg width="375" height="192" xmlns="http://www.w3.org/2000/svg">
  <path d="M187.5.757c-12.119 0-22.559 7.309-27.148 17.75a.375.375 0 0 0-.081-.043l-13.027-5.016a.375.375 0 0 0-.15-.025.375.375 0 0 0-.291.589 7.95 7.95 0 0 1 1.35 3.438c-2.142.124-4.562.678-7.191 1.601-6.28 2.206-13.755 6.533-21.056 12.483s-13.046 12.398-16.473 18.104c-1.714 2.853-2.852 5.52-3.289 7.905-.15.819-.21 1.612-.178 2.367-13.41 2.705-23.565 14.485-23.763 28.634l-12.91-4.75a.375.375 0 0 0-.152-.02.375.375 0 0 0-.283.59 7.95 7.95 0 0 1 1.426 3.621H19.556a9.553 9.553 0 0 0-9.502-8.574 9.553 9.553 0 0 0-9.553 9.553 9.553 9.553 0 0 0 9.553 9.553 9.553 9.553 0 0 0 9.498-8.533h44.735a7.655 7.655 0 0 1-1.424 3.577.375.375 0 0 0 .432.574l12.909-4.75c.226 16.153 13.43 29.22 29.635 29.22 12.045 0 22.432-7.22 27.064-17.558.732.361 1.567.612 2.467.762 2.089.348 4.602.202 7.432-.355 5.658-1.116 12.586-3.9 19.567-8.09 6.98-4.193 12.697-9 16.34-13.47 1.823-2.236 3.133-4.385 3.807-6.393.072-.215.137-.43.194-.645l.08.018.172-.785a7.658 7.658 0 0 1 3.188 2.159.375.375 0 0 0 .654-.297l-1.897-13.83a.375.375 0 0 0-.101-.21c.888.081 1.786.125 2.694.125 12.437 0 23.106-7.698 27.498-18.578l25.783 17.603a7.659 7.659 0 0 1-3.193 2.15.375.375 0 0 0 .032.718l13.536 3.407a.375.375 0 0 0 .12.01c-7.135 5.418-11.752 13.988-11.752 23.619 0 9.254 4.262 17.529 10.925 22.968l-25.98 17.737a7.658 7.658 0 0 1-.84-3.756.375.375 0 0 0-.39-.389.375.375 0 0 0-.29.156l-7.858 11.02c-4.333-11.002-15.066-18.807-27.59-18.807-12.873 0-23.85 8.245-27.935 19.73l-26.3-17.954a7.66 7.66 0 0 1 3.195-2.153.375.375 0 0 0-.033-.716l-13.537-3.407a.375.375 0 0 0-.101-.012.375.375 0 0 0-.295.592l8.103 11.366a.375.375 0 0 0 .68-.227 7.942 7.942 0 0 1 .863-3.793l26.795 18.294a29.574 29.574 0 0 0-1.075 7.92c0 16.346 13.294 29.64 29.639 29.64a29.71 29.71 0 0 0 5.293-.474c2.067 8.342 9.604 14.542 18.579 14.542 10.564 0 19.15-8.588 19.15-19.152 0-3.713-1.06-7.18-2.895-10.115l.217-.279-.848-.663a19.215 19.215 0 0 0-.469-.634 7.66 7.66 0 0 1 3.177-1.79.375.375 0 0 0 .014-.716l-13.212-4.252a29.66 29.66 0 0 0 .633-6.108c0-3.489-.607-6.838-1.719-9.95l13.357-3.363a.375.375 0 0 0 .037-.715 7.94 7.94 0 0 1-3.217-2.185l26.53-18.113a29.477 29.477 0 0 0 17.035 5.397c16.005 0 29.081-12.746 29.62-28.62h44.698a7.66 7.66 0 0 1-1.424 3.577.375.375 0 0 0 .431.573l12.915-4.75a9.553 9.553 0 0 0 9.544 9.133 9.553 9.553 0 0 0 9.553-9.553 9.553 9.553 0 0 0-9.553-9.553 9.553 9.553 0 0 0-9.544 9.134l-12.915-4.75a.375.375 0 0 0-.152-.022.375.375 0 0 0-.281.591 7.946 7.946 0 0 1 1.425 3.62h-44.696c-.518-15.893-13.604-28.66-29.622-28.66-6.57 0-12.647 2.15-17.566 5.782a.375.375 0 0 0-.045-.352l-8.104-11.364a.375.375 0 0 0-.308-.158.375.375 0 0 0-.37.385 7.942 7.942 0 0 1-.864 3.791L215.7 39.518a29.533 29.533 0 0 0 1.438-9.122c0-16.346-13.294-29.639-29.64-29.639zm0 3.997c14.186 0 25.643 11.457 25.643 25.643S201.685 56.04 187.5 56.04c-14.186 0-25.643-11.457-25.643-25.643S173.314 4.754 187.5 4.754zm1.392 12.379h-9.314v26.525h10.371c1.06 0 2.07-.202 2.996-.61l.012-.005a7.553 7.553 0 0 0 2.414-1.733 7.536 7.536 0 0 0 1.61-2.572 8.784 8.784 0 0 0 .556-3.124c0-1.88-.512-3.479-1.62-4.589a7.395 7.395 0 0 0-1.868-1.366c.457-.323.889-.679 1.25-1.11.905-1.056 1.32-2.476 1.32-4.11 0-2.127-.7-3.972-2.091-5.309-1.402-1.347-3.347-1.997-5.637-1.997zm-28.853 2.113a29.485 29.485 0 0 0-2.178 11.15c0 8.845 3.894 16.795 10.056 22.23l-25.346 17.305a7.657 7.657 0 0 1-.84-3.757.375.375 0 0 0-.391-.389.375.375 0 0 0-.289.159l-8.016 11.243c-4.565-10.5-15.035-17.861-27.197-17.861-1.317 0-2.613.087-3.884.254a9.008 9.008 0 0 1 .155-1.676c.372-2.032 1.407-4.522 3.037-7.236 3.26-5.427 8.873-11.757 16.023-17.584s14.48-10.049 20.455-12.147c2.105-.74 4.037-1.205 5.72-1.403l-.002.105.802.012a7.661 7.661 0 0 1-1.48 3.554.375.375 0 0 0 .424.581zm24.42 2.38h4.117c1.1 0 1.837.244 2.326.636.462.369.697.86.697 1.787v1.377c0 .92-.233 1.41-.687 1.777-.488.373-1.232.611-2.336.611h-4.118zM71.608 26.742l-4.087 3.822 1.082 1.17 3.888-3.622h.154v12.436h-4.418v1.612h10.338v-1.612H74.5V26.742zm13.243 0-4.086 3.822 1.082 1.17 3.888-3.622h.155v12.436h-4.419v1.612H91.81v-1.612h-4.064V26.742zm10.638 0v15.42h9.167V40.55h-7.311V26.743zm152.92 2.648c-.942 0-1.753.184-2.43.552a4.436 4.436 0 0 0-1.679 1.546c-.441.678-.765 1.517-.972 2.519-.206.986-.309 2.105-.309 3.357 0 1.267.103 2.393.31 3.38.206.987.53 1.819.971 2.496a4.619 4.619 0 0 0 1.679 1.568c.677.354 1.488.53 2.43.53.943 0 1.752-.176 2.43-.53a4.62 4.62 0 0 0 1.68-1.566c.442-.677.765-1.51.972-2.496.206-.987.309-2.113.309-3.38 0-1.251-.103-2.37-.31-3.357-.206-1.002-.53-1.841-.971-2.519a4.437 4.437 0 0 0-1.68-1.546c-.677-.368-1.487-.552-2.429-.552zm-14.614.265-4.086 3.821 1.082 1.171 3.888-3.622h.155v12.437h-4.419v1.612h10.338v-1.612h-4.064V29.656zm23.883 0v15.418h9.167V43.46h-7.312V29.655zm-9.269 1.347c.619 0 1.149.125 1.59.376.442.235.796.574 1.06 1.016.28.442.487.98.62 1.613.132.633.198 1.332.198 2.098v2.518c0 .78-.066 1.488-.199 2.12-.132.62-.339 1.15-.618 1.591a2.866 2.866 0 0 1-1.06 1.038c-.442.236-.972.354-1.59.354-.62 0-1.15-.118-1.591-.354a3.042 3.042 0 0 1-1.082-1.038c-.266-.442-.464-.972-.597-1.59a10.382 10.382 0 0 1-.199-2.121v-2.518c0-.766.067-1.465.2-2.098.132-.634.33-1.171.596-1.613.28-.442.64-.78 1.082-1.016.442-.25.972-.376 1.59-.376zm-63.947 1.163h4.612c1.214 0 2.038.274 2.6.734l.008.006.006.006c.527.415.798.985.798 2.032v1.444c0 1.074-.276 1.655-.798 2.067-.561.442-1.394.71-2.613.71h-4.612zm63.947 3.896c-.515 0-.876.103-1.082.31a1.063 1.063 0 0 0-.287.75v.486c0 .294.095.545.287.751.206.206.567.31 1.082.31.516 0 .869-.104 1.06-.31.206-.206.31-.457.31-.751v-.486c0-.295-.104-.545-.31-.75-.191-.207-.544-.31-1.06-.31zm-124.53 6.656c-.942 0-1.752.184-2.43.552a4.438 4.438 0 0 0-1.678 1.547c-.442.677-.766 1.516-.972 2.518-.206.986-.31 2.106-.31 3.358 0 1.266.104 2.393.31 3.38.206.986.53 1.818.972 2.495a4.622 4.622 0 0 0 1.679 1.569c.677.353 1.487.53 2.43.53.942 0 1.752-.177 2.43-.53a4.621 4.621 0 0 0 1.678-1.57c.442-.676.766-1.508.972-2.495.206-.986.31-2.113.31-3.38 0-1.251-.104-2.37-.31-3.357-.206-1.002-.53-1.84-.972-2.518a4.438 4.438 0 0 0-1.679-1.547c-.677-.368-1.487-.552-2.43-.552zm11.876.265-4.086 3.822 1.082 1.17 3.888-3.622h.154v12.436h-4.417v1.613h10.338v-1.613h-4.065V42.983zm10.638 0V58.4h9.167v-1.612h-7.311V42.982zm-22.513 1.35c.619 0 1.149.125 1.59.375.442.236.796.575 1.061 1.017.28.441.486.979.618 1.612.133.633.2 1.333.2 2.098v2.519c0 .78-.067 1.487-.2 2.12-.132.619-.338 1.149-.618 1.59a2.867 2.867 0 0 1-1.06 1.039c-.442.235-.972.353-1.59.353-.62 0-1.15-.118-1.591-.353a3.041 3.041 0 0 1-1.082-1.038c-.266-.442-.464-.972-.597-1.59a10.382 10.382 0 0 1-.199-2.121v-2.519c0-.765.067-1.465.2-2.098.132-.633.33-1.17.596-1.612.28-.442.64-.781 1.082-1.017.442-.25.972-.375 1.59-.375zm0 5.058c-.515 0-.876.104-1.082.31a1.063 1.063 0 0 0-.287.75v.486c0 .295.096.546.287.752.206.206.567.309 1.082.309s.87-.103 1.06-.31c.207-.205.31-.456.31-.75v-.486c0-.295-.103-.545-.31-.751-.19-.206-.544-.31-1.06-.31zm45.646 4.559a29.485 29.485 0 0 0 14.795 5.917.375.375 0 0 0-.1.104l-7.516 11.764a.375.375 0 0 0 .464.545 7.946 7.946 0 0 1 3.761-.624 8 8 0 0 1-.309 1.211c-.56 1.667-1.742 3.655-3.461 5.765-3.44 4.218-9.005 8.928-15.82 13.02-6.814 4.091-13.584 6.789-18.924 7.841-2.67.526-4.98.635-6.715.346-.823-.137-1.498-.356-2.042-.645a29.505 29.505 0 0 0 1.82-10.227c0-3.913-.764-7.65-2.147-11.073a.375.375 0 0 0 .013-.003l13.537-3.407a.375.375 0 0 0 .037-.717 7.947 7.947 0 0 1-3.218-2.185zm-63.688 9.375c14.186 0 25.643 11.457 25.643 25.643s-11.457 25.643-25.643 25.643-25.643-11.457-25.643-25.643 11.458-25.643 25.643-25.643zm163.33 0c14.186 0 25.643 11.457 25.643 25.643s-11.457 25.643-25.643 25.643-25.643-11.457-25.643-25.643 11.457-25.643 25.643-25.643zm37.534 4.532c-.942 0-1.752.184-2.43.552a4.438 4.438 0 0 0-1.678 1.547c-.442.677-.766 1.516-.972 2.518-.206.986-.31 2.106-.31 3.357 0 1.267.104 2.393.31 3.38.206.986.53 1.819.972 2.496a4.62 4.62 0 0 0 1.678 1.568c.678.354 1.488.53 2.43.53.943 0 1.752-.176 2.43-.53a4.619 4.619 0 0 0 1.678-1.568c.442-.677.766-1.51.972-2.496.207-.987.31-2.113.31-3.38 0-1.252-.103-2.37-.31-3.357-.206-1.002-.53-1.84-.971-2.518a4.437 4.437 0 0 0-1.68-1.547c-.677-.368-1.486-.552-2.429-.552zm11.875.265-4.086 3.822 1.082 1.17 3.888-3.622h.155v12.436h-4.419v1.612h10.338v-1.612h-4.064V68.121zm9.976 0v15.418h1.855v-6.582h2.452l3.756 6.582h2.076l-3.932-6.67c1.237-.119 2.18-.553 2.827-1.304.648-.751.972-1.753.972-3.004 0-1.4-.375-2.489-1.126-3.27-.751-.78-1.841-1.17-3.27-1.17zm-21.851 1.348c.619 0 1.149.125 1.59.375.442.236.795.575 1.06 1.017.28.441.487.978.62 1.612.132.633.198 1.332.198 2.098v2.519c0 .78-.066 1.487-.199 2.12-.132.618-.339 1.148-.619 1.59a2.867 2.867 0 0 1-1.06 1.039c-.441.235-.972.353-1.59.353-.618 0-1.149-.118-1.59-.353a3.044 3.044 0 0 1-1.083-1.039c-.265-.442-.464-.972-.596-1.59a10.377 10.377 0 0 1-.199-2.12v-2.519c0-.766.066-1.465.199-2.098.132-.634.331-1.17.596-1.612a2.86 2.86 0 0 1 1.083-1.017c.441-.25.972-.375 1.59-.375zm23.706.265h3.711c.78 0 1.384.199 1.811.596.442.383.663.935.663 1.657v1.149c0 .721-.221 1.28-.663 1.678-.427.383-1.03.575-1.81.575h-3.712zm-23.706 4.793c-.515 0-.876.103-1.082.31a1.065 1.065 0 0 0-.288.75v.486c0 .295.096.545.288.751.206.206.567.31 1.082.31.515 0 .869-.104 1.06-.31.206-.206.31-.456.31-.75v-.487a1.02 1.02 0 0 0-.31-.75c-.191-.207-.545-.31-1.06-.31zm-36.864.754c-3.24 0-5.878 1.263-7.528 3.699l-.002.004-.002.002c-1.61 2.416-2.346 5.754-2.346 9.98 0 4.226.735 7.562 2.346 9.979l.002.004.002.002c1.65 2.435 4.288 3.7 7.528 3.7 1.215 0 2.302-.163 3.259-.519.918-.34 1.732-.81 2.416-1.412a8.876 8.876 0 0 0 1.657-1.937 16.97 16.97 0 0 0 1.123-2.092l.388-.868-4.325-1.983-.371.946c-.192.492-.415.96-.67 1.407l-.003.004a4.933 4.933 0 0 1-.853 1.06c-.279.26-.626.477-1.068.65l-.006.004-.008.002c-.366.15-.877.246-1.54.246-1.705 0-2.762-.55-3.563-1.78-.81-1.276-1.259-3.06-1.259-5.404v-4.018c0-2.342.45-4.124 1.259-5.4.801-1.23 1.858-1.785 3.564-1.785.662 0 1.173.097 1.54.247l.007.004.006.002c.432.168.77.39 1.047.667l.02.02.025.021c.317.28.59.616.823 1.025l.004.01.006.008c.253.422.476.879.67 1.372l.37.947 4.337-1.989-.406-.874a18.31 18.31 0 0 0-1.117-2.045 8.543 8.543 0 0 0-1.656-1.973c-.684-.602-1.498-1.073-2.416-1.414-.957-.355-2.045-.517-3.26-.517zm-166.66.424-8.13 26.523h5.08l2.078-7.015h7.206l2.078 7.015h5.153l-8.133-26.523zm2.63 6.987 2.337 8.029h-4.67zm72.636 4.958c-.943 0-1.753.185-2.43.553a4.437 4.437 0 0 0-1.679 1.546c-.442.677-.766 1.517-.972 2.518-.206.987-.309 2.106-.309 3.358 0 1.266.103 2.393.31 3.38s.53 1.818.971 2.496a4.619 4.619 0 0 0 1.679 1.568c.677.353 1.487.53 2.43.53.942 0 1.752-.177 2.43-.53a4.62 4.62 0 0 0 1.679-1.568c.441-.678.765-1.51.972-2.497.206-.986.309-2.113.309-3.38 0-1.251-.103-2.37-.31-3.357-.206-1.001-.53-1.84-.971-2.518a4.438 4.438 0 0 0-1.68-1.546c-.677-.368-1.487-.553-2.43-.553zm11.875.265-4.086 3.822 1.082 1.17 3.888-3.622h.154v12.436h-4.417v1.613h10.337v-1.613h-4.065V87.915zm9.976 0v15.418h1.855V96.75h2.452l3.755 6.583h2.077l-3.932-6.67c1.237-.119 2.18-.553 2.827-1.304.648-.751.972-1.752.972-3.004 0-1.399-.375-2.489-1.126-3.269-.751-.78-1.84-1.171-3.27-1.171zm-21.851 1.348c.618 0 1.148.125 1.59.375.442.236.795.575 1.06 1.017.28.441.486.98.619 1.612.132.634.199 1.332.199 2.098v2.519c0 .78-.067 1.487-.2 2.12-.132.619-.338 1.15-.618 1.59a2.866 2.866 0 0 1-1.06 1.039c-.442.235-.972.354-1.59.354s-1.149-.119-1.59-.354a3.041 3.041 0 0 1-1.083-1.038c-.265-.442-.464-.972-.596-1.59a10.382 10.382 0 0 1-.2-2.121v-2.519c0-.765.067-1.465.2-2.098.132-.633.33-1.17.596-1.612.28-.442.64-.78 1.082-1.017.442-.25.972-.375 1.59-.375zm23.706.265h3.71c.781 0 1.385.199 1.812.596.442.383.663.936.663 1.657v1.149c0 .721-.22 1.28-.663 1.678-.427.383-1.03.575-1.811.575h-3.711zm-23.706 4.793c-.516 0-.876.104-1.083.31a1.063 1.063 0 0 0-.287.75v.487c0 .294.096.545.287.75.207.207.567.31 1.083.31s.868-.103 1.06-.31a1.02 1.02 0 0 0 .31-.75v-.486c0-.295-.104-.545-.31-.751-.192-.206-.545-.31-1.06-.31zm9.062 27.571c14.186 0 25.643 11.457 25.643 25.643s-11.458 25.643-25.643 25.643c-14.186 0-25.643-11.458-25.643-25.643 0-14.186 11.457-25.643 25.643-25.643zm53.106 5.458-4.086 3.822 1.082 1.17 3.888-3.623h.154v12.436h-4.418v1.613h10.338v-1.613h-4.064v-13.806zm13.245 0-4.087 3.822 1.083 1.17 3.888-3.623h.154v12.436h-4.418v1.613h10.338v-1.613h-4.065v-13.806zm10.638 0v15.418h9.167v-1.613h-7.312v-13.806zm-142.74 4.714c-.942 0-1.752.184-2.43.553-.677.353-1.236.868-1.678 1.546s-.766 1.517-.972 2.518c-.207.987-.31 2.106-.31 3.357 0 1.267.103 2.393.31 3.38.206.987.53 1.819.972 2.496a4.619 4.619 0 0 0 1.679 1.568c.677.354 1.487.53 2.43.53.942 0 1.752-.176 2.43-.53a4.62 4.62 0 0 0 1.678-1.568c.442-.677.766-1.51.972-2.496.206-.987.309-2.113.309-3.38 0-1.251-.103-2.37-.31-3.357-.205-1.001-.53-1.841-.971-2.518s-1.001-1.193-1.679-1.546c-.677-.369-1.487-.553-2.43-.553zm-14.614.266-4.086 3.82 1.082 1.171 3.888-3.622h.154v12.436h-4.418v1.613H114.1v-1.613h-4.064V132.33zm23.221 0v15.418h1.855v-6.583h2.452l3.755 6.583h2.077l-3.932-6.671c1.237-.118 2.18-.552 2.828-1.303.648-.751.971-1.753.971-3.005 0-1.399-.375-2.488-1.126-3.269-.751-.78-1.841-1.17-3.27-1.17zm-8.606 1.347c.618 0 1.148.125 1.59.375a2.7 2.7 0 0 1 1.06 1.016c.28.442.486.98.619 1.613.132.633.199 1.333.199 2.098v2.518c0 .78-.067 1.488-.2 2.121-.132.619-.337 1.149-.617 1.59a2.868 2.868 0 0 1-1.06 1.038c-.443.236-.973.354-1.591.354-.619 0-1.149-.118-1.59-.354a3.042 3.042 0 0 1-1.083-1.038c-.265-.441-.464-.972-.596-1.59a10.383 10.383 0 0 1-.2-2.12v-2.519c0-.765.067-1.465.2-2.098.132-.633.33-1.17.596-1.613.28-.441.64-.78 1.082-1.016.442-.25.972-.375 1.59-.375zm10.462.265h3.71c.781 0 1.385.198 1.812.596.442.383.663.936.663 1.657v1.148c0 .722-.221 1.282-.663 1.68-.427.382-1.03.573-1.811.573h-3.711zm47.47.332v26.522h7.834c3.227 0 5.854-1.185 7.514-3.503 1.654-2.31 2.398-5.576 2.398-9.758 0-4.182-.744-7.448-2.398-9.758-1.66-2.318-4.287-3.503-7.514-3.503zm-57.932 4.461c-.516 0-.876.103-1.083.31a1.063 1.063 0 0 0-.287.75v.486c0 .295.096.545.287.751.207.207.567.31 1.083.31.515 0 .869-.103 1.06-.31.206-.206.31-.456.31-.75v-.487c0-.294-.104-.544-.31-.75-.191-.207-.545-.31-1.06-.31zm62.813.03h2.812c1.753 0 2.856.532 3.665 1.649l.002.004.004.004c.844 1.138 1.327 2.85 1.327 5.211v3.806c0 2.361-.483 4.072-1.327 5.21l-.004.004-.002.004c-.809 1.117-1.912 1.65-3.665 1.65h-2.812zm31.715 15.864 7.07 11.41a.375.375 0 0 0 .692-.184 7.944 7.944 0 0 1 1.107-3.73l.409.32a17.065 17.065 0 0 1 2.967 9.646c0 9.484-7.669 17.153-17.152 17.153-8.04 0-14.766-5.511-16.632-12.966 10.587-2.667 18.925-11.043 21.54-21.65zm23.75 10.089c-.943 0-1.753.183-2.43.552a4.436 4.436 0 0 0-1.679 1.546c-.441.677-.765 1.517-.971 2.518-.207.987-.31 2.106-.31 3.357 0 1.267.103 2.393.31 3.38.206.987.53 1.819.971 2.496a4.619 4.619 0 0 0 1.68 1.568c.676.354 1.486.53 2.429.53.942 0 1.752-.176 2.43-.53a4.62 4.62 0 0 0 1.678-1.568c.442-.677.766-1.51.972-2.496.206-.987.31-2.113.31-3.38 0-1.251-.104-2.37-.31-3.357-.206-1.001-.53-1.841-.972-2.518a4.436 4.436 0 0 0-1.678-1.546c-.678-.369-1.488-.552-2.43-.552zm11.876.264-4.087 3.822 1.082 1.17 3.888-3.622h.155v12.436h-4.418v1.612h10.338v-1.612h-4.064v-13.806zm9.975 0V180.4h1.856v-6.582h2.451l3.756 6.582h2.076l-3.932-6.67c1.237-.118 2.18-.553 2.828-1.304.648-.75.972-1.752.972-3.004 0-1.399-.376-2.489-1.127-3.27-.751-.78-1.84-1.17-3.27-1.17zm-21.85 1.348c.618 0 1.148.125 1.59.376.442.235.795.574 1.06 1.015.28.442.486.98.619 1.613.132.633.198 1.333.198 2.098v2.519c0 .78-.066 1.487-.198 2.12-.133.619-.339 1.149-.619 1.59a2.869 2.869 0 0 1-1.06 1.039c-.442.235-.972.353-1.59.353-.619 0-1.15-.118-1.591-.353a3.044 3.044 0 0 1-1.082-1.039c-.265-.441-.464-.971-.597-1.59a10.379 10.379 0 0 1-.199-2.12v-2.519c0-.765.067-1.465.2-2.098.132-.633.33-1.17.596-1.613.28-.441.64-.78 1.082-1.015.442-.25.972-.376 1.59-.376zm23.706.265h3.711c.78 0 1.385.199 1.812.597.441.382.663.934.663 1.656v1.148c0 .722-.222 1.282-.663 1.68-.427.382-1.031.574-1.812.574h-3.71zm-23.707 4.793c-.515 0-.876.103-1.082.31a1.064 1.064 0 0 0-.287.75v.487c0 .294.096.544.287.75.206.207.567.31 1.082.31.516 0 .87-.103 1.061-.31.206-.206.31-.456.31-.75v-.486c0-.295-.104-.545-.31-.752-.191-.206-.545-.309-1.06-.309zm-47.807.683v.041z" color="#000"/>
</svg>
