<svg xmlns="http://www.w3.org/2000/svg" width="797" height="797">
  <path style="fill:#fff" d="M712.287 398.5A313.787 313.787 0 0 1 398.5 712.287 313.787 313.787 0 0 1 84.713 398.5 313.787 313.787 0 0 1 398.5 84.713 313.787 313.787 0 0 1 712.287 398.5z"/>
  <path style="fill:#0055f4" d="M398.501 0C178.416 0 0 178.416 0 398.502 0 618.586 178.416 797 398.502 797 618.586 797 797 618.586 797 398.501 797 178.416 618.586 0 398.501 0zM294.245 128.444h208.512c9.197-.017 16.656 7.446 16.633 16.641.023 9.194-7.438 16.655-16.633 16.631H294.245c-9.195.023-16.653-7.437-16.63-16.632-.024-9.195 7.433-16.657 16.63-16.64zM398.5 193.711c111.315 0 202.152 90.836 202.152 202.151 0 104.87-80.61 191.528-183.019 201.22l-11.915 42.57 70.022 19.61c10.036 2.787 15.893 13.2 13.062 23.223-2.786 10.035-13.2 15.894-23.224 13.064l-87.489-24.496c-.232-.06-.464-.06-.696-.12-10.04-2.783-15.904-13.203-13.07-23.23l14.193-50.687c-102.003-10.097-182.17-96.58-182.17-201.154 0-111.315 90.84-202.151 202.154-202.151zm0 55.388v.006a146.946 146.946 0 0 0-60.604 12.997v267.532c18.454 8.324 38.95 12.99 60.604 12.99 81.152.235 146.997-65.61 146.762-146.762.235-81.151-65.61-146.998-146.762-146.763zm-102.747 41.78c-27.183 26.596-44.01 63.727-44.01 104.99 0 41.262 16.827 78.388 44.01 104.988z"/>
</svg>
