<svg viewBox="0 0 68 95.5" xmlns="http://www.w3.org/2000/svg">
  <path d="M16.465 0a2.792 2.792 0 0 0-2.797 2.799 2.79 2.79 0 0 0 2.797 2.797h35.07a2.79 2.79 0 0 0 2.797-2.797A2.792 2.792 0 0 0 51.535 0h-35.07zM34 10.977c-18.722 0-34 15.278-34 34 0 17.588 13.483 32.134 30.639 33.832l-2.387 8.525a3.162 3.162 0 0 0 2.198 3.907c.039.01.078.01.117.02l14.715 4.12a3.162 3.162 0 0 0 3.906-2.197 3.162 3.162 0 0 0-2.197-3.906L35.214 85.98l2.004-7.16C54.442 77.19 68 62.615 68 44.977c0-18.722-15.278-34-34-34zm0 9.316a24.613 24.613 0 0 1 24.684 24.684A24.613 24.613 0 0 1 34 69.661c-3.642 0-7.089-.785-10.193-2.185V22.48A24.714 24.714 0 0 1 34 20.294zM16.719 27.32v35.316c-4.572-4.474-7.402-10.718-7.402-17.658 0-6.94 2.83-13.185 7.402-17.658z"/>
</svg>


